<?xml version="1.0" standalone="no"?>
<!DOCTYPE svg PUBLIC "-//W3C//DTD SVG 20010904//EN"
 "http://www.w3.org/TR/2001/REC-SVG-20010904/DTD/svg10.dtd">
<svg version="1.0" xmlns="http://www.w3.org/2000/svg"
 width="1772.000000pt" height="796.000000pt" viewBox="0 0 1772.000000 796.000000"
 preserveAspectRatio="xMidYMid meet">
<metadata>
Created by potrace 1.15, written by Peter Selinger 2001-2017
</metadata>
<g transform="translate(0.000000,796.000000) scale(0.100000,-0.100000)"
fill="#000000" stroke="none">
<path d="M0 3980 l0 -3980 8860 0 8860 0 0 3980 0 3980 -8860 0 -8860 0 0
-3980z m9205 3465 c305 -37 481 -76 765 -172 170 -57 276 -101 435 -180 400
-200 705 -421 1010 -734 160 -164 270 -296 378 -453 126 -183 97 -164 278
-176 158 -10 363 -32 479 -50 694 -110 1127 -203 1735 -376 133 -37 122 -34
530 -168 481 -157 658 -205 915 -245 237 -37 347 -44 565 -38 223 6 257 11
402 58 83 27 97 29 130 19 80 -26 100 -64 109 -201 11 -186 -35 -309 -166
-439 -80 -81 -169 -132 -285 -165 -46 -14 -74 -31 -120 -73 -149 -135 -381
-260 -551 -295 -59 -12 -83 -24 -142 -69 -134 -101 -322 -180 -513 -213 -52
-10 -103 -19 -115 -21 -14 -2 -31 -24 -52 -67 -73 -148 -212 -240 -436 -288
-123 -26 -377 -26 -530 1 -109 18 -110 18 -137 -1 -53 -38 -176 -89 -274 -115
-85 -23 -122 -27 -250 -28 -164 -1 -262 15 -364 60 -65 29 -76 29 -143 4 -129
-48 -324 -71 -428 -52 -31 6 -60 6 -65 2 -6 -5 -17 -37 -24 -72 -33 -151 -192
-587 -217 -595 -5 -2 -25 10 -44 26 -27 22 -32 32 -24 42 19 25 101 230 137
344 19 61 49 171 67 245 18 74 33 136 34 137 1 1 28 -8 61 -20 48 -17 83 -21
180 -21 131 0 197 14 321 65 l70 29 81 -35 c135 -58 192 -70 348 -70 115 0
155 4 225 23 92 25 185 65 264 114 l50 31 121 -19 c177 -28 460 -25 570 4 200
55 303 147 358 322 3 12 31 19 98 29 52 7 111 17 132 22 20 5 56 14 80 20 76
19 247 91 305 129 31 21 76 56 99 79 33 32 50 41 76 41 55 0 203 47 301 96 99
49 164 95 271 190 59 52 81 65 135 79 198 51 359 205 400 384 8 33 10 83 7
130 -11 135 -22 144 -137 101 -297 -109 -838 -81 -1425 74 -165 44 -214 59
-465 144 -198 68 -593 189 -752 231 -43 12 -112 30 -153 41 -139 37 -581 138
-810 185 -107 22 -406 72 -540 90 -66 8 -133 18 -150 21 -57 10 -380 34 -467
35 l-87 1 -96 144 c-483 725 -1225 1254 -2065 1473 -638 165 -1274 156 -1920
-30 -359 -103 -738 -287 -1052 -510 -364 -259 -693 -600 -916 -949 -87 -135
-75 -127 -177 -128 -296 -4 -891 -87 -1335 -186 -36 -8 -117 -25 -180 -39
-140 -31 -442 -103 -490 -117 -345 -98 -452 -130 -600 -175 -96 -30 -247 -80
-335 -110 -489 -171 -931 -257 -1335 -257 -234 -1 -347 14 -480 61 -75 27 -87
29 -106 16 -26 -16 -34 -53 -34 -149 0 -130 48 -241 142 -332 81 -78 189 -135
300 -158 15 -4 58 -34 95 -67 101 -90 197 -156 299 -205 92 -44 223 -84 276
-84 20 0 49 -18 101 -61 138 -116 350 -199 589 -230 l98 -12 16 -51 c49 -149
170 -246 366 -293 104 -25 389 -25 553 1 l121 19 54 -35 c100 -63 177 -93 301
-118 200 -41 367 -20 567 71 l44 21 57 -25 c137 -59 197 -72 336 -71 94 1 133
5 178 21 40 14 60 17 62 9 2 -6 22 -83 44 -171 43 -174 92 -319 152 -460 22
-49 39 -95 39 -101 0 -11 -53 -54 -67 -54 -20 0 -132 303 -203 545 -32 110
-40 130 -56 128 -174 -21 -300 -10 -445 37 -50 17 -96 30 -102 30 -7 0 -46
-13 -87 -29 -198 -77 -464 -78 -681 -3 -68 24 -178 78 -201 99 -14 13 -25 13
-65 5 -173 -39 -464 -45 -603 -12 -223 53 -364 151 -433 302 -14 31 -29 50
-42 52 -11 2 -51 9 -90 16 -225 38 -444 131 -570 242 -22 19 -54 32 -101 42
-188 40 -401 153 -556 295 -42 39 -79 64 -99 68 -116 23 -237 92 -325 185
-117 124 -154 219 -154 393 0 55 5 116 10 136 12 42 52 82 101 99 32 12 45 10
133 -20 54 -18 139 -39 190 -46 135 -21 440 -18 616 6 371 48 485 77 1070 266
545 177 551 179 964 283 668 170 1350 286 1849 317 l97 6 38 54 c189 274 296
407 465 578 443 445 940 746 1547 936 234 73 506 125 787 150 139 12 534 4
688 -15z m898 -116 c323 -121 616 -278 900 -483 73 -52 161 -123 197 -157 36
-33 47 -46 25 -28 -320 269 -673 479 -1065 634 -80 31 -147 59 -149 61 -10 9
14 2 92 -27z m-1108 -59 c232 -15 510 -59 685 -107 30 -8 69 -18 85 -23 108
-27 385 -135 543 -210 230 -110 505 -288 725 -471 94 -78 258 -240 365 -359
122 -137 332 -420 332 -448 0 -5 -26 -12 -57 -16 -205 -24 -462 -108 -575
-187 -14 -11 -34 -19 -43 -19 -16 0 -16 2 -1 25 9 13 16 29 16 35 0 6 -46 70
-102 143 -57 72 -131 167 -164 211 l-61 79 30 70 c17 38 37 71 44 74 7 3 48 1
91 -4 42 -6 78 -9 80 -8 1 1 -26 30 -60 63 l-63 61 38 76 c20 41 37 78 37 81
0 3 -36 -14 -81 -37 l-80 -42 -65 64 c-35 35 -64 61 -64 59 0 -3 7 -43 15 -90
8 -47 15 -86 15 -87 0 -2 -37 -22 -82 -45 l-83 -42 40 -6 c38 -5 39 -6 18 -18
-35 -19 -186 -82 -198 -82 -6 0 -49 25 -96 55 -338 223 -723 367 -1144 427
-135 19 -571 16 -712 -5 -408 -61 -759 -192 -1092 -407 -129 -84 -110 -83
-260 -14 -41 19 -77 34 -81 34 -4 0 -27 -26 -52 -57 -24 -32 -111 -143 -193
-248 -243 -310 -237 -302 -218 -331 20 -30 9 -43 -20 -24 -141 89 -343 159
-559 191 -59 9 -88 18 -88 26 0 31 235 343 366 486 408 444 908 767 1502 966
376 127 857 188 1267 161z m-1855 -95 c0 -3 -28 -19 -62 -36 -261 -131 -571
-347 -814 -566 -200 -182 -429 -446 -582 -675 l-51 -76 -105 -7 c-57 -4 -110
-5 -118 -3 -7 3 34 8 92 12 122 8 100 -9 260 203 257 341 513 591 875 856 82
60 327 207 450 270 56 29 55 29 55 22z m1933 -776 c449 -66 746 -168 1085
-371 48 -29 86 -57 85 -63 -1 -10 -71 -27 -106 -27 -9 1 -30 9 -45 20 -80 56
-339 177 -497 232 -129 44 -305 85 -490 112 -135 19 -512 16 -655 -5 -335 -51
-615 -147 -900 -306 l-105 -59 -50 12 c-58 15 -66 29 -28 48 15 8 66 37 113
65 212 123 430 212 669 273 104 26 154 36 361 69 79 13 478 13 563 0z m6 -179
c162 -25 215 -36 401 -86 149 -39 509 -195 510 -220 0 -7 -8 -15 -17 -18 -28
-11 -435 -8 -473 4 -19 5 -51 10 -71 10 -20 0 -49 4 -65 9 -16 5 -56 14 -89
21 -129 27 -255 64 -369 107 l-118 45 -57 -25 c-143 -63 -359 -122 -586 -159
-33 -6 -166 -12 -296 -15 -201 -3 -238 -2 -248 11 -11 13 2 22 88 66 233 117
485 197 751 240 132 21 527 27 639 10z m-198 -351 c248 -92 613 -159 859 -159
236 0 548 62 739 146 29 13 59 24 65 24 6 0 29 -24 52 -53 22 -28 91 -117 153
-196 l113 -144 -35 -71 c-48 -96 -59 -124 -95 -246 -72 -244 -96 -436 -95
-760 1 -336 31 -582 119 -980 26 -114 28 -144 29 -332 0 -139 -4 -211 -11
-218 -8 -8 -22 -8 -45 -3 l-34 9 3 175 c3 171 0 200 -39 374 -143 637 -153
1257 -29 1720 30 110 35 125 80 227 l42 96 -112 144 c-85 107 -118 143 -134
142 -12 -1 -66 -17 -121 -36 -249 -87 -435 -114 -720 -105 -271 9 -478 47
-752 139 l-121 41 -139 -46 c-274 -91 -469 -126 -733 -134 -300 -9 -520 25
-760 118 -41 16 -80 29 -86 29 -10 0 -190 -221 -223 -275 -14 -21 -12 -30 27
-116 114 -259 162 -537 162 -950 0 -354 -36 -662 -121 -1034 -38 -163 -42
-241 -26 -479 2 -27 -2 -31 -36 -39 -21 -5 -40 -7 -43 -5 -2 3 -9 53 -16 111
-15 139 -2 277 52 540 76 372 102 602 102 907 0 102 -5 236 -11 298 -24 244
-100 538 -177 682 -19 35 -34 68 -34 73 0 5 44 65 98 134 53 69 121 157 150
194 29 38 59 69 66 69 8 0 44 -13 81 -30 179 -80 484 -140 717 -140 260 0 709
85 893 170 53 24 49 25 146 -11z m-2901 -370 c241 -45 463 -146 608 -276 94
-83 105 -102 133 -233 29 -134 48 -291 49 -415 2 -207 -7 -542 -15 -590 -5
-27 -9 -56 -9 -64 -3 -75 -105 113 -149 274 -37 134 -47 204 -55 370 -7 129
-11 157 -32 198 -81 162 -315 264 -780 342 -52 9 -122 21 -155 28 -76 15 -414
14 -520 -2 -387 -57 -385 -57 -545 -91 -215 -45 -669 -161 -981 -251 -148 -42
-185 -52 -241 -68 -18 -5 -87 -25 -153 -44 -66 -20 -154 -45 -195 -56 -64 -17
-181 -49 -335 -92 -22 -6 -51 -15 -65 -20 -24 -8 -85 -24 -335 -88 -700 -179
-1097 -159 -1266 63 -34 44 -69 132 -69 171 0 19 -8 20 150 -11 183 -35 655
-21 895 27 28 5 75 14 105 20 113 22 425 102 500 128 72 26 715 233 775 251
210 60 668 181 760 200 22 4 103 22 180 38 224 50 599 118 780 143 274 38 374
49 525 59 153 9 358 4 440 -11z m6205 0 c61 -5 137 -14 170 -19 33 -5 101 -14
150 -20 50 -6 113 -15 140 -20 28 -5 120 -21 205 -36 133 -22 478 -89 590
-114 19 -4 58 -13 85 -19 28 -5 104 -24 170 -42 66 -17 156 -40 200 -50 44
-11 94 -24 110 -30 17 -5 89 -25 160 -45 189 -51 298 -85 595 -184 336 -113
489 -156 785 -226 328 -76 814 -94 1082 -38 40 8 77 12 82 9 12 -7 -10 -99
-33 -144 -39 -73 -146 -151 -251 -183 -127 -38 -339 -49 -500 -27 -176 24
-603 116 -740 160 -16 5 -244 70 -505 143 -261 74 -540 152 -620 175 -428 121
-912 242 -1130 282 -387 71 -739 94 -925 59 -27 -5 -93 -17 -145 -25 -167 -28
-261 -49 -410 -92 -85 -24 -229 -95 -287 -141 -36 -29 -61 -60 -83 -106 -31
-62 -32 -72 -41 -233 -8 -171 -21 -254 -60 -379 -34 -109 -106 -254 -128 -254
-5 0 -11 30 -15 68 -4 37 -9 81 -11 97 -3 17 -4 66 -4 110 2 105 1 211 -3 370
-1 72 0 155 4 187 14 112 19 144 28 183 4 22 14 67 21 100 17 83 39 122 101
181 76 74 141 120 230 165 179 90 358 141 533 153 74 5 324 -3 450 -15z m2205
-128 c135 -38 306 -91 380 -116 402 -139 576 -188 859 -245 210 -42 365 -60
526 -61 77 0 160 -4 185 -8 70 -13 -180 -13 -320 -1 -287 25 -684 111 -985
214 -410 138 -434 146 -749 237 -93 27 -172 51 -175 55 -3 4 3 4 14 1 11 -3
130 -37 265 -76z m-10982 54 c-2 -3 -97 -32 -209 -64 -250 -73 -288 -85 -414
-128 -491 -171 -830 -254 -1170 -288 -120 -12 -66 3 69 20 318 39 631 116
1005 247 113 40 315 104 450 144 236 69 280 80 269 69z m2055 -371 c79 -5 110
-11 114 -20 10 -26 -17 -41 -95 -53 -338 -54 -745 -165 -1077 -297 -62 -24
-115 -44 -119 -44 -5 0 -298 -124 -401 -170 -22 -10 -137 -57 -255 -105 -118
-48 -234 -96 -257 -106 -95 -42 -483 -166 -628 -200 -22 -6 -56 -14 -75 -18
-358 -86 -760 -107 -925 -49 -125 43 -355 186 -355 220 0 4 14 8 32 8 17 0 57
4 87 10 31 5 94 14 141 20 103 13 198 27 265 40 28 5 79 14 115 20 225 40 480
100 630 149 174 57 481 149 655 196 55 15 127 35 160 46 145 45 467 132 715
194 74 18 191 48 260 65 429 107 561 119 1013 94z m7165 5 c145 -16 351 -59
702 -148 350 -88 438 -111 555 -145 44 -13 91 -27 105 -31 32 -8 86 -24 128
-36 17 -5 47 -13 65 -18 97 -26 570 -164 617 -180 244 -82 506 -148 760 -191
36 -7 88 -16 115 -20 50 -9 138 -23 250 -40 33 -5 108 -14 168 -21 59 -7 107
-16 107 -20 0 -10 -97 -83 -170 -126 -160 -96 -258 -123 -444 -123 -229 1
-542 42 -746 99 -19 5 -62 17 -95 25 -109 30 -228 67 -355 111 -124 44 -713
281 -780 315 -63 32 -432 181 -520 210 -14 5 -68 24 -120 43 -79 29 -220 70
-430 127 -19 5 -78 19 -130 30 -52 12 -111 25 -130 30 -19 5 -83 16 -142 26
-108 17 -135 30 -124 59 4 11 24 15 83 16 43 1 110 5 148 9 111 11 278 11 383
-1z m-6851 -43 c182 -32 410 -99 505 -147 85 -43 158 -118 158 -162 0 -40
-316 -68 -440 -38 -30 7 -92 31 -138 53 -100 47 -205 143 -215 196 -11 53 9
112 37 112 6 0 48 -7 93 -14z m6158 -25 c24 -54 7 -101 -60 -166 -159 -154
-384 -205 -654 -149 -83 17 -89 24 -62 68 73 117 245 189 661 275 86 17 95 15
115 -28z m-6358 -117 c8 -23 34 -62 59 -88 l45 -47 -46 -70 c-33 -48 -54 -71
-73 -75 -90 -21 -372 -113 -529 -172 -158 -61 -242 -97 -388 -167 -60 -29
-162 -75 -225 -103 -63 -27 -140 -61 -170 -75 -173 -79 -409 -173 -560 -223
-25 -8 -54 -19 -65 -24 -38 -17 -173 -59 -271 -84 -238 -60 -370 -78 -564 -78
-222 0 -393 28 -549 89 -81 32 -207 111 -195 122 5 5 61 14 124 20 63 7 140
16 170 21 30 5 87 13 125 19 133 20 260 41 300 51 180 41 224 52 250 59 91 25
120 34 225 67 105 34 240 89 425 174 76 35 595 242 745 297 321 118 702 238
915 286 245 56 234 56 252 1z m6608 16 c235 -49 387 -93 728 -211 128 -44 252
-87 277 -96 66 -23 631 -248 695 -278 31 -14 57 -25 59 -25 3 0 37 -15 78 -34
184 -86 345 -143 588 -207 19 -5 58 -14 85 -20 28 -6 66 -15 85 -19 71 -16
197 -40 260 -49 241 -35 355 -50 423 -56 81 -8 95 -19 55 -45 -94 -59 -142
-83 -222 -109 -159 -51 -207 -60 -386 -70 -284 -17 -546 25 -907 145 -145 49
-416 149 -468 174 -11 5 -60 27 -110 48 -49 22 -110 49 -135 60 -25 11 -83 37
-130 58 -47 20 -123 55 -170 77 -47 22 -116 54 -155 72 -117 54 -260 111 -470
185 -49 17 -101 35 -115 40 -14 5 -68 21 -120 35 -52 14 -103 28 -112 31 -15
5 -108 126 -108 141 0 3 18 26 41 50 22 25 50 64 60 89 11 24 23 44 27 44 4 0
70 -13 147 -30z m-6377 -234 c79 -40 167 -65 275 -77 100 -11 157 -6 349 28
26 5 26 4 30 -62 1 -37 1 -71 -2 -75 -14 -21 -167 -78 -328 -121 -97 -27 -136
-32 -232 -33 -101 -1 -121 2 -162 22 -87 43 -112 102 -83 194 17 55 77 148 95
148 6 0 32 -11 58 -24z m6077 -28 c73 -109 81 -191 24 -248 -53 -53 -91 -64
-219 -63 -108 0 -241 24 -350 62 -223 79 -220 77 -220 163 l0 70 33 -5 c210
-35 253 -38 357 -26 109 12 216 42 272 77 50 31 64 27 103 -30z m-6325 -153
c0 -49 20 -108 47 -137 19 -22 13 -29 -42 -47 -22 -7 -49 -16 -60 -21 -11 -5
-76 -30 -145 -56 -251 -95 -369 -160 -675 -374 -132 -93 -372 -237 -512 -308
-101 -52 -305 -136 -373 -154 -19 -5 -51 -13 -70 -19 -139 -37 -190 -43 -390
-43 -228 -1 -280 7 -396 59 -78 35 -131 82 -158 139 -29 61 -21 66 100 66 101
0 140 4 304 31 283 46 653 154 875 254 17 8 75 34 130 58 55 25 190 90 300
145 110 55 223 110 250 122 28 13 93 43 145 67 145 69 252 115 400 172 74 29
155 61 180 71 25 10 55 19 68 19 20 1 22 -4 22 -44z m6576 16 c132 -47 301
-116 429 -174 243 -110 315 -144 557 -264 136 -68 250 -123 252 -123 3 0 33
-13 68 -29 164 -76 353 -145 533 -195 167 -47 194 -53 420 -95 107 -21 214
-31 313 -31 117 0 125 -5 94 -67 -40 -76 -124 -135 -252 -175 -69 -21 -91 -23
-295 -22 -222 1 -264 6 -420 49 -193 52 -465 178 -700 323 -27 17 -70 43 -95
58 -25 15 -97 64 -160 108 -296 209 -515 323 -790 412 -25 8 -53 19 -62 24
-10 6 -27 10 -38 10 -26 0 -25 8 7 66 20 36 27 63 27 101 0 64 1 64 112 24z
m-5642 -215 l18 -89 -23 -18 c-37 -27 -258 -137 -334 -165 -85 -31 -228 -44
-275 -24 -81 34 -141 158 -111 234 6 17 21 19 137 21 71 1 149 7 174 14 25 7
63 17 85 23 55 15 179 57 245 84 30 12 58 19 61 16 3 -4 13 -47 23 -96z m4786
41 c47 -16 99 -33 115 -38 138 -37 170 -42 290 -44 l130 -2 9 -37 c22 -85 -54
-206 -140 -222 -114 -21 -283 28 -494 144 l-105 57 1 40 c2 53 15 126 26 147
8 17 11 17 46 2 20 -9 75 -30 122 -47z m-5600 -149 c1 -68 18 -128 45 -158 9
-10 14 -23 11 -28 -3 -5 -66 -39 -141 -76 -74 -36 -164 -84 -200 -106 -36 -22
-67 -40 -70 -40 -3 0 -64 -36 -137 -80 -127 -78 -317 -211 -463 -326 -95 -74
-160 -109 -268 -146 -84 -28 -104 -31 -222 -31 -103 0 -146 4 -205 21 -96 27
-193 69 -185 81 3 6 29 19 58 30 28 10 77 30 107 44 30 13 75 32 100 43 211
89 458 231 652 377 156 116 186 136 329 214 138 76 149 81 234 119 71 31 325
123 343 123 8 1 12 -18 12 -61z m6361 23 c277 -96 541 -236 773 -410 85 -64
201 -144 259 -178 162 -97 434 -227 610 -293 87 -33 78 -44 -79 -96 -102 -35
-117 -37 -239 -38 -134 0 -167 5 -287 50 -77 29 -155 78 -260 161 -82 67 -223
168 -313 227 -112 74 -411 243 -533 302 -67 32 -122 63 -122 67 0 4 8 20 17
34 29 44 43 94 43 156 0 31 4 57 9 57 5 0 60 -18 122 -39z m-5465 -183 c19
-45 34 -87 34 -94 0 -14 -153 -120 -225 -157 -213 -107 -401 -81 -476 65 -32
63 -30 65 79 71 142 7 297 62 487 171 33 19 62 33 64 31 2 -2 19 -41 37 -87z
m4659 -7 c161 -78 236 -101 370 -110 88 -6 90 -7 87 -30 -5 -35 -46 -95 -81
-120 -127 -91 -307 -59 -537 95 -46 32 -89 63 -94 69 -7 9 -3 29 14 66 13 30
31 71 40 93 l16 38 42 -26 c24 -15 88 -48 143 -75z m-5420 -149 c24 -106 108
-196 208 -223 23 -6 48 -13 55 -15 8 -2 12 -28 12 -82 0 -75 -1 -79 -32 -109
-101 -95 -262 -174 -423 -206 -86 -17 -108 -18 -157 -8 -146 31 -174 157 -93
427 l25 81 162 85 c184 96 209 108 222 104 6 -1 15 -26 21 -54z m6135 -16
c208 -106 223 -116 243 -171 46 -124 62 -316 32 -375 -22 -42 -59 -67 -120
-81 -45 -10 -68 -9 -142 5 -154 30 -282 88 -401 181 l-73 57 6 77 c9 88 10 91
36 91 39 0 131 54 175 103 31 34 49 67 60 106 8 31 17 62 19 68 5 16 30 7 165
-61z m-5257 -30 c29 -37 32 -58 18 -115 -5 -20 -14 -60 -20 -88 -27 -128 -34
-159 -42 -180 -9 -25 -110 -83 -189 -109 -75 -24 -163 -23 -198 2 -45 33 -81
118 -89 207 -7 87 -2 96 52 97 72 1 309 115 398 192 18 15 34 27 37 28 3 0 17
-16 33 -34z m4299 -14 c112 -84 303 -172 375 -172 45 0 52 -20 42 -117 -15
-148 -65 -207 -173 -206 -71 1 -135 20 -228 70 -76 41 -65 18 -117 256 -6 23
-12 56 -15 72 -2 17 -7 37 -11 45 -4 13 48 100 60 100 2 0 32 -21 67 -48z
m-5699 -184 c-3 -18 -9 -40 -14 -48 -21 -43 -20 -214 2 -300 6 -21 -71 -55
-159 -70 -63 -11 -86 -11 -169 4 -98 18 -203 51 -203 65 0 26 499 381 535 381
11 0 13 -8 8 -32z m7095 -16 c159 -99 452 -314 452 -332 0 -16 -128 -55 -232
-71 -60 -9 -91 -9 -145 1 -94 17 -165 48 -159 69 34 113 32 184 -10 354 -9 38
3 35 94 -21z m-6243 -269 c23 -42 83 -89 126 -98 21 -5 39 -21 63 -60 19 -29
39 -56 45 -59 24 -15 8 -47 -57 -107 -155 -147 -365 -246 -476 -225 -91 17
-136 107 -136 272 0 75 4 106 13 108 104 27 278 112 337 165 25 22 50 40 55
41 6 0 19 -17 30 -37z m5367 9 c73 -63 180 -121 288 -158 86 -29 83 -24 78
-149 -7 -143 -30 -197 -102 -234 -46 -24 -51 -24 -116 -13 -87 15 -161 48
-265 117 -86 57 -195 158 -195 180 0 25 83 137 109 147 73 30 96 46 124 91 17
26 34 47 38 47 5 0 23 -13 41 -28z m-4889 -49 c6 -11 -11 -225 -18 -232 -12
-11 -116 52 -155 95 -47 51 -50 71 -12 80 47 10 116 34 142 49 29 16 37 18 43
8z m4408 -17 c30 -14 75 -30 102 -37 26 -6 47 -17 47 -24 0 -16 -108 -118
-147 -139 -58 -29 -63 -24 -63 58 0 40 -3 94 -6 120 -4 29 -3 46 3 46 6 0 35
-11 64 -24z m-5525 -191 c28 -1 57 -5 63 -9 6 -4 11 -32 11 -63 0 -63 23 -160
50 -212 39 -77 136 -140 215 -141 22 0 45 -4 51 -8 12 -8 47 -72 42 -77 -14
-14 -310 -155 -317 -151 -25 16 -144 348 -192 536 -36 144 -36 144 -1 134 15
-4 50 -8 78 -9z m6678 6 c5 -8 -47 -218 -83 -328 -23 -72 -117 -311 -130 -332
-7 -10 -41 3 -165 65 -86 42 -156 82 -156 88 0 6 9 26 20 44 18 29 24 32 67
32 94 1 184 63 226 157 26 59 47 157 47 226 0 39 1 40 60 38 19 -1 49 3 65 8
40 12 43 12 49 2z m-5649 -91 c33 -16 65 -30 71 -30 13 0 20 -22 30 -97 l6
-52 -43 -11 c-86 -22 -445 -141 -483 -160 -30 -15 -42 -17 -53 -8 -21 17 -45
67 -38 78 3 5 44 27 91 50 107 50 190 109 274 194 36 36 70 66 75 66 6 0 37
-14 70 -30z m4642 -22 c69 -74 187 -159 292 -209 50 -24 91 -50 91 -57 0 -20
-28 -70 -42 -74 -7 -3 -35 5 -63 17 -52 23 -304 108 -433 145 l-73 21 7 67 c3
37 8 70 10 73 2 3 30 16 63 28 33 12 63 26 66 31 13 20 36 8 82 -42z m-2024
-23 c185 -14 411 -40 562 -65 123 -20 261 -43 300 -51 68 -12 146 -27 230 -43
345 -66 888 -216 1140 -316 111 -44 423 -205 525 -272 138 -89 220 -173 220
-223 0 -8 -26 -41 -59 -73 -90 -88 -156 -198 -228 -385 -31 -81 -34 -98 -35
-207 -1 -66 -6 -120 -10 -120 -4 0 -19 17 -32 38 -30 47 -67 81 -136 125 -177
111 -474 231 -880 355 -135 41 -366 95 -572 132 -247 46 -365 65 -498 80 -52
6 -108 13 -125 16 -49 7 -249 23 -415 34 -463 28 -1039 -9 -1560 -99 -140 -25
-241 -43 -310 -57 -88 -18 -352 -81 -395 -95 -476 -151 -578 -189 -760 -281
-179 -90 -250 -139 -287 -198 -40 -65 -48 -53 -48 73 0 116 -22 192 -100 348
-61 123 -95 173 -166 243 -51 50 -56 59 -50 87 18 91 203 223 541 384 244 116
451 191 783 281 28 8 78 21 110 30 143 39 445 106 567 125 78 12 142 23 228
38 142 26 181 33 322 50 150 19 297 35 475 50 159 14 450 12 663 -4z m-3793
-1135 c23 -13 34 -50 55 -200 26 -188 53 -269 187 -563 17 -37 29 -69 27 -71
-2 -2 -34 -6 -71 -9 l-68 -6 0 28 c0 47 -28 212 -50 296 -29 108 -73 219 -114
287 -75 123 -83 207 -23 233 39 17 35 17 57 5z m6918 -1 c67 -23 65 -96 -9
-221 -50 -85 -93 -193 -120 -299 -11 -46 -25 -100 -29 -119 -5 -19 -12 -75
-16 -124 l-6 -88 -30 6 c-17 3 -48 6 -69 6 -31 0 -39 4 -39 18 0 10 4 22 9 28
11 11 121 268 143 334 33 96 54 191 63 285 12 109 36 174 71 185 1 0 15 -5 32
-11z m-4220 -128 c137 -68 336 -147 616 -243 l120 -41 125 42 c206 70 458 170
591 233 116 55 128 58 164 49 21 -5 44 -7 52 -4 7 2 20 0 29 -5 15 -8 12 -12
-16 -30 -50 -30 -279 -135 -459 -209 -117 -48 -459 -163 -486 -163 -31 0 -323
97 -474 158 -137 55 -409 178 -461 208 -17 10 -33 24 -33 29 -1 6 24 13 54 16
30 3 61 6 68 7 7 1 56 -20 110 -47z m-311 -147 c260 -127 397 -188 542 -241
52 -18 101 -38 110 -44 48 -30 -301 51 -474 111 -172 58 -535 242 -535 269 0
10 31 17 87 20 22 1 103 -34 270 -115z m2446 97 c22 -22 -337 -205 -528 -269
-162 -55 -469 -131 -481 -119 -3 3 28 17 68 33 261 99 424 172 673 301 137 71
141 72 200 68 32 -3 63 -9 68 -14z m-4557 -33 c6 -7 26 -51 44 -98 30 -79 33
-97 40 -250 6 -138 10 -172 27 -205 25 -48 58 -80 96 -94 121 -46 408 49 667
220 147 97 209 122 305 123 80 1 80 1 83 -26 10 -85 -385 -344 -638 -418 -41
-12 -86 -26 -100 -30 -178 -60 -555 -80 -645 -35 -49 24 -55 52 -22 91 20 23
32 28 73 28 27 0 71 -6 97 -13 37 -11 50 -11 61 -2 18 15 18 15 -59 176 -57
119 -113 257 -135 331 -38 129 -53 208 -42 219 11 11 135 -3 148 -17z m6467
15 c6 -10 -14 -106 -37 -188 -27 -92 -108 -289 -165 -403 -51 -102 -58 -142
-26 -142 8 0 40 7 72 15 94 25 163 0 163 -58 0 -26 -6 -37 -32 -52 -30 -18
-52 -20 -213 -20 -204 0 -307 15 -495 72 -222 66 -485 210 -612 334 -112 109
-104 139 37 126 79 -8 170 -48 275 -122 93 -65 311 -173 420 -207 55 -17 99
-23 166 -23 83 0 93 2 126 27 66 50 81 101 88 283 7 162 12 190 62 307 17 40
25 47 51 51 59 7 116 7 120 0z m-5319 -120 c31 -60 54 -114 51 -120 -2 -7 -21
-13 -42 -13 -73 0 -189 -48 -306 -127 -189 -128 -397 -212 -543 -221 -79 -4
-83 -4 -99 21 -12 19 -14 36 -9 64 23 125 106 193 398 324 196 87 228 100 421
167 66 23 70 20 129 -95z m569 36 c550 -347 1210 -483 1866 -383 290 43 691
185 916 324 39 23 103 63 143 87 l73 45 110 -23 c154 -32 153 -30 96 -122 -61
-97 -77 -137 -77 -188 0 -38 -2 -41 -22 -35 -13 3 -31 6 -40 6 -13 0 -21 18
-34 78 -9 42 -19 80 -23 84 -4 4 -20 -23 -35 -60 -16 -37 -34 -72 -40 -79 -8
-9 -32 -9 -90 -3 -44 5 -82 7 -84 5 -3 -2 23 -31 57 -64 33 -32 61 -63 61 -69
0 -6 -13 -40 -30 -77 -16 -37 -30 -69 -30 -71 0 -11 24 -1 77 31 32 19 65 35
74 35 9 0 36 -19 60 -43 47 -46 79 -65 79 -44 -1 7 -7 39 -15 72 -8 33 -15 65
-15 72 0 10 59 53 72 53 3 0 18 -19 33 -42 30 -45 152 -168 166 -168 55 0
-138 -129 -357 -238 -83 -41 -150 -70 -379 -163 -25 -10 -119 -41 -205 -67
-110 -34 -287 -70 -475 -99 -164 -24 -207 -27 -480 -27 -303 -1 -334 1 -614
46 -423 66 -937 268 -1279 500 l-43 29 76 71 c42 39 90 91 106 114 l30 44 41
-21 c40 -21 41 -21 35 -67 -4 -26 -10 -65 -13 -87 l-7 -40 60 53 c33 28 67 52
75 52 7 0 37 -15 65 -34 34 -22 60 -32 73 -29 11 3 20 6 20 8 0 1 -16 35 -36
76 l-36 74 44 40 c24 22 52 51 63 64 l20 24 -70 -7 c-38 -4 -78 -9 -87 -12
-14 -4 -26 11 -54 70 -20 42 -40 76 -44 76 -5 0 -14 -32 -20 -70 -14 -81 -28
-100 -76 -100 l-34 0 0 52 c0 50 -33 125 -92 210 -36 52 -27 58 132 92 36 8
73 14 83 15 10 1 69 -31 130 -70z m3622 42 c92 -30 157 -53 210 -76 17 -8 54
-23 84 -35 81 -31 305 -145 355 -179 75 -52 114 -110 130 -193 6 -31 3 -41
-15 -59 -19 -19 -29 -21 -103 -17 -136 9 -326 84 -507 202 -158 104 -254 146
-336 146 -28 0 -43 4 -43 13 0 27 106 226 120 227 8 0 56 -13 105 -29z m-4095
-766 c179 -117 443 -249 658 -331 224 -85 505 -155 782 -195 272 -39 656 -39
945 0 269 36 594 119 829 213 171 68 435 201 581 292 l140 88 35 -20 c19 -11
35 -24 34 -28 -2 -40 -480 -311 -694 -394 -507 -196 -888 -269 -1401 -270
-447 0 -768 54 -1204 202 -201 68 -369 144 -597 270 -123 67 -288 178 -288
192 0 11 52 44 72 45 4 1 52 -28 108 -64z"/>
<path d="M8747 7063 l-23 -78 -94 -5 -93 -5 71 -50 c40 -27 72 -53 72 -57 0
-4 -11 -42 -25 -85 -13 -42 -23 -78 -21 -80 1 -2 27 15 57 38 88 66 81 65 156
10 38 -27 70 -48 72 -46 2 3 -25 95 -46 151 -2 6 29 36 69 65 l72 54 -90 3
-91 3 -23 75 c-13 41 -27 77 -32 80 -4 3 -18 -30 -31 -73z"/>
<path d="M8186 7048 c-16 -132 -13 -125 -57 -132 -22 -3 -62 -11 -90 -17 l-50
-11 63 -30 c35 -16 72 -34 84 -38 20 -8 20 -11 9 -101 l-12 -93 63 68 63 69
38 -18 c21 -10 56 -26 77 -36 22 -10 41 -17 43 -15 4 4 -53 112 -70 134 -10
13 -4 23 78 110 37 40 38 43 15 38 -78 -16 -133 -26 -145 -26 -7 0 -28 26 -46
58 -57 101 -56 100 -63 40z"/>
<path d="M9352 7025 c-47 -83 -46 -82 -137 -60 -33 8 -66 14 -73 15 -8 0 14
-30 47 -67 l61 -66 -40 -75 c-22 -41 -39 -76 -38 -78 2 -1 37 12 78 31 l75 33
63 -61 64 -62 -7 70 c-4 39 -9 78 -11 87 -4 12 2 21 18 27 13 5 52 22 87 39
l64 29 -91 18 -91 17 -7 66 c-13 120 -14 120 -62 37z"/>
<path d="M9875 6899 c-42 -52 -61 -69 -73 -63 -10 3 -36 12 -59 20 -23 7 -52
18 -63 24 -12 6 -23 10 -25 8 -3 -2 18 -37 45 -77 l48 -74 -54 -67 c-30 -37
-54 -70 -54 -73 0 -2 35 6 78 19 42 13 82 24 87 24 6 0 30 -31 55 -70 25 -38
48 -66 52 -62 4 4 8 43 10 86 l3 79 78 22 c43 13 80 25 83 28 3 2 -32 17 -77
33 l-81 29 4 93 c2 50 3 92 2 92 -1 0 -27 -32 -59 -71z"/>
<path d="M7670 6873 l0 -92 -79 -28 c-44 -15 -78 -31 -75 -34 2 -4 16 -10 31
-14 16 -3 52 -13 81 -21 l52 -15 0 -85 c0 -46 4 -84 9 -84 4 0 29 31 54 69
l46 69 83 -23 c45 -13 84 -23 85 -21 2 1 -20 31 -47 67 -27 35 -50 69 -50 74
0 6 20 41 45 78 25 37 42 67 38 67 -5 0 -42 -13 -84 -28 -84 -32 -75 -35 -137
47 -19 25 -38 50 -43 56 -5 5 -9 -30 -9 -82z"/>
<path d="M7150 6703 c0 -10 9 -48 19 -85 22 -76 25 -70 -66 -127 -29 -18 -53
-37 -53 -42 0 -5 38 -9 84 -9 l83 0 13 -47 c27 -104 33 -122 40 -118 4 2 20
39 35 81 l28 77 91 -6 91 -6 -25 22 c-14 12 -45 38 -70 58 l-44 37 32 85 31
86 -70 -44 c-38 -25 -73 -46 -78 -48 -5 -1 -38 22 -75 51 -50 40 -66 48 -66
35z"/>
<path d="M10395 6631 c-33 -28 -67 -51 -75 -51 -8 0 -42 18 -75 40 -33 22 -63
40 -67 40 -4 0 6 -31 22 -69 17 -39 30 -76 30 -83 0 -7 -28 -39 -62 -71 l-63
-58 88 6 87 6 21 -48 c11 -26 28 -64 36 -83 l16 -35 21 87 20 87 61 5 c33 3
74 7 90 8 28 3 25 6 -46 51 l-77 48 20 75 c10 42 17 81 16 86 -2 6 -31 -13
-63 -41z"/>
<path d="M6700 6315 l28 -84 -71 -53 -71 -53 90 -3 91 -3 23 -75 c13 -41 27
-77 30 -79 4 -2 17 30 30 72 14 41 30 77 37 80 12 5 54 8 142 12 l33 1 -53 36
c-100 67 -97 61 -67 154 14 44 24 80 22 80 -4 0 -86 -58 -130 -91 -6 -5 -40
12 -82 41 -39 28 -73 50 -76 50 -3 0 8 -38 24 -85z"/>
<path d="M6457 5970 c-31 -33 -58 -60 -61 -60 -3 0 -39 16 -80 35 -41 19 -77
35 -80 35 -3 0 13 -31 34 -69 22 -38 41 -74 42 -79 2 -5 -23 -39 -55 -76 -32
-36 -55 -66 -50 -66 4 1 37 7 73 15 36 8 72 14 80 15 9 0 32 -31 55 -74 22
-41 42 -72 45 -70 3 3 10 42 15 87 l10 82 75 13 c41 7 81 15 89 18 8 2 -23 22
-69 44 -81 40 -82 41 -76 73 11 65 18 137 13 137 -3 0 -30 -27 -60 -60z"/>
<path d="M11044 5975 c3 -16 8 -59 11 -95 l7 -65 -83 -37 -83 -36 40 -10 c21
-5 62 -13 89 -18 l50 -9 10 -89 c11 -100 11 -100 65 -1 18 33 35 62 36 64 2 2
35 -4 75 -13 39 -9 78 -16 86 -16 9 0 -9 27 -41 64 -31 35 -56 67 -56 72 0 4
18 38 40 75 22 37 40 70 40 73 0 2 -37 -12 -81 -32 l-82 -37 -64 70 c-59 64
-64 67 -59 40z"/>
<path d="M8420 2750 c-63 -4 -121 -8 -127 -9 -7 0 -13 -10 -13 -21 0 -15 9
-22 30 -27 17 -3 34 -11 37 -17 9 -14 33 -424 26 -442 -3 -8 -11 -14 -18 -14
-23 0 -48 -31 -36 -43 11 -11 141 -12 239 -1 62 7 71 32 20 55 l-33 14 -3 88
c-3 79 -1 87 16 87 27 0 62 -43 123 -148 l54 -93 105 3 c90 3 105 5 108 20 2
11 -6 22 -23 30 -17 8 -52 50 -89 108 -34 52 -70 103 -79 112 -16 16 -16 17 3
23 11 3 32 22 46 41 35 45 37 118 4 165 -49 68 -147 85 -390 69z m211 -96 c25
-22 26 -94 2 -123 -10 -11 -37 -25 -60 -30 l-43 -9 0 92 c0 51 2 95 6 98 9 10
75 -9 95 -28z"/>
<path d="M8978 2754 c-16 -15 -8 -44 11 -44 11 0 27 -7 35 -16 14 -13 15 -42
10 -222 -4 -114 -11 -215 -15 -224 -5 -9 -19 -18 -31 -20 -15 -2 -24 -11 -26
-24 -3 -21 2 -22 142 -29 313 -15 387 -4 465 74 59 59 76 103 76 201 0 100
-19 144 -86 204 -52 48 -107 72 -189 85 -88 13 -383 25 -392 15z m378 -102
c77 -40 114 -104 114 -200 0 -44 -7 -72 -27 -113 -38 -74 -78 -99 -157 -99
-34 0 -68 5 -76 10 -16 10 -16 28 -4 294 l6 139 53 -6 c29 -3 70 -14 91 -25z"/>
<path d="M7864 2700 c-19 -7 -30 -41 -78 -242 -65 -265 -70 -282 -102 -307
-26 -20 -32 -47 -12 -53 11 -4 68 3 156 17 43 8 44 39 2 54 -16 5 -30 14 -30
18 1 13 28 125 32 128 2 2 35 6 73 10 l70 7 25 -48 c42 -84 42 -84 15 -94 -15
-6 -25 -17 -25 -30 0 -16 7 -20 32 -20 73 0 263 23 270 33 10 16 -2 37 -21 37
-33 0 -60 31 -111 127 -28 54 -86 160 -128 235 -76 137 -77 138 -112 137 -19
0 -45 -4 -56 -9z"/>
<path d="M9727 2703 c-15 -15 -5 -35 23 -44 27 -10 30 -16 30 -50 0 -61 -39
-381 -50 -406 -5 -13 -20 -23 -37 -25 -20 -2 -28 -9 -28 -23 0 -17 13 -21 130
-37 171 -22 165 -23 165 7 0 18 -5 25 -19 25 -42 0 -43 18 -12 239 16 116 35
218 42 227 7 8 21 13 30 11 10 -3 24 2 30 10 22 26 -12 39 -147 56 -148 19
-148 19 -157 10z"/>
<path d="M7385 2632 c-77 -13 -144 -28 -149 -32 -17 -16 3 -40 33 -40 19 0 34
-7 40 -17 16 -31 63 -302 55 -326 -19 -63 -96 -101 -155 -77 -45 19 -55 41
-89 189 -37 166 -38 189 -6 197 28 7 38 24 26 45 -7 11 -34 8 -152 -20 -79
-18 -147 -37 -152 -41 -17 -16 3 -40 32 -40 16 0 34 -6 39 -12 6 -7 26 -80 46
-161 44 -184 67 -226 142 -263 48 -23 64 -26 118 -22 72 6 110 23 155 69 l32
33 0 -27 c0 -15 6 -30 13 -32 6 -3 57 3 112 12 95 17 100 19 100 43 0 20 -6
26 -28 28 -17 2 -32 12 -37 25 -11 25 -70 367 -70 404 0 18 8 28 30 36 30 12
41 41 18 49 -7 3 -76 -6 -153 -20z"/>
<path d="M10248 2483 c-47 -76 -106 -175 -132 -220 -50 -86 -85 -123 -118
-123 -14 0 -19 -6 -16 -22 3 -20 13 -25 68 -35 98 -18 130 -17 130 6 0 10 -10
25 -22 33 l-22 15 24 46 c43 81 38 78 116 64 l69 -13 13 -62 c16 -74 12 -92
-23 -92 -21 0 -26 -4 -23 -22 3 -19 17 -25 128 -49 69 -16 135 -28 148 -28 32
-1 28 28 -9 58 -29 25 -33 36 -74 241 -73 360 -57 321 -136 335 l-37 7 -84
-139z"/>
<path d="M10744 2515 c-4 -9 14 -34 45 -65 28 -28 51 -59 51 -68 0 -27 -88
-354 -98 -364 -8 -8 -33 -14 -74 -17 -5 -1 -8 -10 -8 -21 0 -14 11 -22 43 -30
23 -6 64 -18 91 -26 69 -20 96 -18 96 5 0 10 -11 26 -25 35 -33 22 -32 51 9
205 l33 124 80 -139 c44 -76 105 -184 134 -239 46 -85 58 -100 79 -100 23 0
29 13 98 225 40 124 77 229 83 235 5 5 22 10 37 11 15 1 31 3 35 3 5 1 7 11 5
23 -2 19 -19 27 -108 55 -90 28 -107 31 -119 19 -12 -12 -8 -19 24 -49 l37
-34 -27 -88 c-48 -157 -37 -154 -107 -29 -91 165 -159 278 -171 286 -12 7
-210 58 -227 58 -6 0 -13 -7 -16 -15z"/>
<path d="M6695 2461 c-5 -18 -15 -21 -69 -21 -277 0 -447 -219 -340 -437 49
-101 166 -161 288 -150 82 8 179 39 246 79 62 38 64 45 39 150 -13 56 -12 58
10 79 20 19 21 23 8 36 -12 13 -30 10 -138 -20 -102 -28 -124 -37 -124 -52 0
-13 10 -21 32 -27 29 -7 34 -15 49 -64 8 -30 14 -61 11 -68 -8 -19 -90 -39
-127 -31 -77 17 -149 133 -157 255 -4 56 -2 70 19 100 29 43 99 80 152 80 43
0 124 -34 133 -56 3 -8 16 -14 29 -14 30 0 31 20 6 110 -15 51 -23 66 -40 68
-13 2 -22 -4 -27 -17z"/>
<path d="M5875 2068 c-22 -6 -49 -12 -60 -14 -19 -3 -95 -87 -95 -105 0 -4 32
-29 70 -55 53 -35 69 -51 64 -63 -19 -46 -19 -46 151 -129 92 -45 172 -82 179
-82 18 0 46 33 46 53 0 9 -12 31 -28 49 -15 18 -42 52 -60 76 l-33 43 20 17
c21 17 21 17 -47 117 l-69 100 -49 1 c-27 1 -67 -3 -89 -8z m152 -55 c81 -107
96 -143 57 -143 -24 0 -16 -21 32 -76 25 -30 44 -58 42 -63 -2 -6 -28 7 -58
27 -30 21 -80 53 -110 71 l-55 34 28 9 c15 5 27 13 27 17 0 4 -31 34 -70 67
-38 32 -70 64 -70 71 0 7 18 13 43 16 104 9 104 9 134 -30z"/>
<path d="M11560 2050 c-14 -14 -42 -53 -62 -85 -21 -33 -44 -68 -50 -78 -11
-15 -10 -20 5 -28 9 -6 17 -15 17 -20 0 -6 -25 -42 -55 -81 -60 -76 -65 -96
-35 -123 19 -17 22 -17 82 10 113 50 276 134 283 146 4 6 2 16 -4 22 -21 21
-10 37 59 83 39 26 70 50 70 54 0 7 -69 91 -84 101 -9 7 -108 20 -166 23 -26
1 -42 -6 -60 -24z m153 -10 c15 0 27 -4 27 -9 0 -5 -31 -36 -69 -68 -38 -32
-70 -63 -70 -70 -1 -6 11 -15 26 -20 l28 -10 -30 -18 c-17 -10 -68 -42 -113
-72 -46 -30 -86 -52 -88 -50 -3 2 18 33 46 68 27 35 50 67 50 72 0 4 -9 7 -20
7 -32 0 -24 25 32 106 l52 76 51 -6 c27 -3 62 -6 78 -6z"/>
<path d="M7670 1082 l0 -91 -87 -27 c-82 -25 -86 -27 -62 -39 13 -7 50 -21 81
-31 l57 -17 3 -91 3 -91 54 71 53 71 81 -29 c44 -15 82 -27 83 -25 2 2 -19 35
-46 74 l-49 70 55 72 c30 39 50 71 45 71 -6 0 -45 -11 -88 -25 -42 -13 -78
-23 -79 -22 0 1 -24 35 -52 76 l-52 74 0 -91z"/>
<path d="M9950 1112 c-13 -20 -35 -51 -48 -69 l-23 -31 -77 24 c-42 13 -81 24
-85 24 -5 0 14 -32 42 -71 l50 -72 -49 -71 c-27 -39 -48 -72 -46 -73 1 -2 39
10 83 25 l81 29 56 -76 56 -75 0 91 0 92 55 20 c30 11 66 23 80 27 14 3 25 10
25 14 0 4 -36 18 -80 31 l-80 24 0 88 c0 48 -3 87 -7 87 -5 0 -19 -17 -33 -38z"/>
<path d="M9411 956 l-53 -64 -81 34 c-44 19 -81 33 -83 32 -1 -2 18 -36 42
-77 l45 -73 -57 -64 c-31 -36 -55 -67 -52 -69 3 -4 106 17 149 31 13 3 28 -15
60 -71 24 -41 47 -75 52 -75 4 0 7 20 7 44 0 24 3 63 6 88 l6 45 72 13 c39 7
77 16 84 20 8 4 -20 21 -68 43 l-81 36 6 53 c3 29 8 68 11 86 3 17 1 32 -4 32
-4 0 -32 -29 -61 -64z"/>
<path d="M8191 948 c17 -122 19 -119 -71 -157 -44 -19 -79 -35 -77 -37 1 -2
38 -10 82 -19 44 -9 83 -22 87 -28 4 -7 8 -30 8 -52 1 -22 4 -58 8 -80 l8 -40
43 75 c24 41 45 76 46 78 1 1 41 -6 89 -16 47 -10 86 -17 86 -14 0 2 -25 32
-55 65 -30 34 -55 67 -55 72 0 6 18 39 40 74 21 36 37 67 35 69 -2 3 -39 -11
-81 -29 l-76 -34 -57 63 c-31 34 -59 62 -62 62 -3 0 -2 -24 2 -52z"/>
<path d="M8700 845 l29 -86 -72 -52 -72 -52 91 -3 90 -3 24 -72 c13 -40 27
-76 31 -81 4 -4 19 30 33 76 29 95 10 84 151 87 52 2 57 3 40 14 -49 30 -125
90 -125 99 0 6 9 42 21 80 11 39 19 71 17 73 -2 2 -33 -19 -70 -46 l-67 -50
-70 51 c-39 27 -73 50 -75 50 -3 0 8 -38 24 -85z"/>
</g>
</svg>
